<?xml version="1.0" encoding="utf-8"?>
<!-- Generator: Adobe Illustrator 24.2.1, SVG Export Plug-In . SVG Version: 6.00 Build 0)  -->
<svg version="1.1" id="Layer_1" xmlns="http://www.w3.org/2000/svg" xmlns:xlink="http://www.w3.org/1999/xlink" x="0px" y="0px"
	 viewBox="0 0 571.8 142.3" style="enable-background:new 0 0 571.8 142.3;" xml:space="preserve">
<style type="text/css">
	.st0{fill:#010202;}
</style>
<path class="st0" d="M521.5,80.3c0.1-1.1,0.2-2.8,0.4-5c0.2-2.2,0.5-3.8,0.9-4.8c0.4-1,1-2.1,1.7-3.3c0.7-1.2,1.7-2,2.8-2.5
	c1.1-0.5,2.5-0.7,4.1-0.7c3.9,0,6.5,1.6,7.8,4.9c1.3,3.3,2,8.1,2,14.7v2.6h-19.8C521.4,83.4,521.4,81.4,521.5,80.3z M489,92.2
	c0,18.5,3.7,31.5,11.1,38.9c7.4,7.5,18.2,11.2,32.4,11.2c20.8,0,33.7-10.6,38.7-31.9h-27.1c-1.7,7.1-5.5,10.6-11.4,10.6
	c-4,0-6.9-1.5-8.6-4.5c-1.7-3-2.6-8.2-2.6-15.7h49.9c0.3-3.2,0.4-5.9,0.4-8c0-17.6-3.7-30.4-11-38.5c-7.3-8.1-17.2-12.2-29.5-12.2
	c-12.4,0-22.5,4-30.4,12.1C493,62.2,489,74.9,489,92.2z M474.7,117.7V0h-41.1v22.1h9v95.6h-8.2v22.1H483v-22.1H474.7z M372.4,117.2
	c-1.1-0.5-2-1.3-2.7-2.4c-0.7-1.1-1.2-2.3-1.6-3.4c-0.4-1.1-0.7-2.9-0.8-5.2c-0.1-2.3-0.2-4.4-0.3-6.2c-0.1-1.8-0.1-4.4-0.1-7.7
	c0-9.7,0.6-16.4,1.9-20.1c1.3-3.7,3.8-5.5,7.7-5.5c3.7,0,6.2,1.8,7.5,5.5c1.3,3.7,1.9,10.3,1.9,20.1c0,9.4-0.6,16.1-1.7,19.9
	c-1.1,3.8-3.8,5.7-7.9,5.7C374.8,117.9,373.5,117.7,372.4,117.2z M417,117.7V0h-41.7v22.1h9.6v33.3c-4.5-8.6-11.6-13-21.3-13
	c-9,0-16.2,3.5-21.4,10.4c-5.3,6.9-7.9,19.5-7.9,37.7c0,10.1,0.7,18.6,2.2,25.5c1.5,6.9,3.6,12.2,6.3,15.9c2.7,3.7,5.8,6.2,9.1,7.7
	c3.3,1.5,7.2,2.2,11.8,2.2c4.8,0,9.2-1.3,13.3-3.8c4.1-2.5,6.7-5.5,8.1-9v10.8h40.3v-22.1H417z M326,43.1c-5.7,0-10.9,1.5-15.6,4.5
	c-4.7,3-8.4,7.1-11.2,12.3l0.2-15.4H261v22.1h8.4v51.1H261v22.1h50.9v-22.1h-10.6V98c0-10.5,1.9-17.6,5.8-21.3
	c3.9-3.7,10.9-5.4,21.1-5V43.1H326z M199.9,92c0-9.8,0.7-16.7,2-20.6c1.3-3.9,3.9-5.8,7.8-5.8c3.9,0,6.4,1.9,7.7,5.7
	c1.3,3.8,1.9,10.7,1.9,20.7c0,9.7-0.6,16.6-1.7,20.7c-1.1,4.1-3.8,6.1-7.9,6.1c-4.1,0-6.8-2-8-6.1C200.5,108.6,199.9,101.7,199.9,92
	z M178.4,54.7c-7.3,8.4-11,20.9-11,37.7c0,33.3,14.1,49.9,42.3,49.9c28.2,0,42.3-16.6,42.3-49.9c0-16.9-3.6-29.5-10.9-37.8
	c-7.3-8.3-17.7-12.5-31.4-12.5C196.1,42.1,185.7,46.3,178.4,54.7z M127.7,0v24.7h10.8l-12.6,71.4L105.3,0H80L57.5,96.2L46.9,24.7
	h10.2V0H0v24.7h8l21.1,115.1h37.7l18-74.4l17.2,74.4h37.5l22.7-115.1h8V0H127.7z"/>
</svg>
